<?xml version="1.0" encoding="utf-8"?>
<!-- Generator: Adobe Illustrator 27.3.1, SVG Export Plug-In . SVG Version: 6.00 Build 0)  -->
<svg version="1.1" id="Layer_1" xmlns="http://www.w3.org/2000/svg" xmlns:xlink="http://www.w3.org/1999/xlink" x="0px" y="0px"
	 viewBox="0 0 134.5 45" style="enable-background:new 0 0 134.5 45;" xml:space="preserve">
<style type="text/css">
	
		.st0{clip-path:url(#SVGID_00000008858627747572205120000016702820208237357210_);fill:url(#SVGID_00000003074758427661494430000006586284334412715963_);}
	.st1{fill-rule:evenodd;clip-rule:evenodd;fill:#D7D7D7;}
	.st2{fill-rule:evenodd;clip-rule:evenodd;fill:url(#SVGID_00000174561224003447461110000006456957321392512387_);}
	.st3{fill:url(#SVGID_00000000213565181719540760000005715285863825808768_);}
	
		.st4{clip-path:url(#SVGID_00000133521012499825483500000000120319717212422816_);fill:url(#SVGID_00000106839588654832500130000013263534537898110616_);}
</style>
<g>
	
		<linearGradient id="SVGID_00000003089540541029247610000017233717044533353135_" gradientUnits="userSpaceOnUse" x1="12.0656" y1="33.111" x2="26.2066" y2="42.2943">
		<stop  offset="0" style="stop-color:#B08839"/>
		<stop  offset="0.1103" style="stop-color:#C9A152"/>
		<stop  offset="0.241" style="stop-color:#E3BB6B"/>
		<stop  offset="0.3637" style="stop-color:#F3CB7C"/>
		<stop  offset="0.4692" style="stop-color:#F8D182"/>
		<stop  offset="0.4698" style="stop-color:#F8D182"/>
		<stop  offset="0.5235" style="stop-color:#EBC475"/>
		<stop  offset="0.5933" style="stop-color:#E4BC6D"/>
		<stop  offset="0.7377" style="stop-color:#E2BA6B"/>
		<stop  offset="0.7947" style="stop-color:#E5C172"/>
		<stop  offset="0.8834" style="stop-color:#EED487"/>
		<stop  offset="0.9924" style="stop-color:#FCF2A9"/>
		<stop  offset="1" style="stop-color:#FDF4AB"/>
	</linearGradient>
	
		<rect x="12.2" y="32.9" style="fill:url(#SVGID_00000003089540541029247610000017233717044533353135_);" width="13.9" height="9.6"/>
	<g>
		<defs>
			<path id="SVGID_00000168800725627816347890000008675484298129082509_" d="M75.2,7.6l0.8-4.7h-3.4l0.8,4.7H75.2z M79.2,7.6h1.9
				l0.8-4.7h-3.4L79.2,7.6z M81,23.2C80.9,23.2,80.9,23.2,81,23.2c-0.9,0.5-1.5,0.9-2.5,1c-2.6,0.4-5.4-0.7-6.7-2.9
				c-2.1-3.3-1.7-10.4-1.6-15.3c0-2.3,0-1.4,0-3.2c-6.1-0.1-5.1-0.3-5.1,1.9c0,2.3,0,4.7,0,7c0,2.3,0.1,4.7,0.5,6.5
				c2.4,11.9,23,11.6,23.6-3c0.1-1.9,0-4,0-5.9c0-2.1,0.1-4.4,0.1-6.4l-0.1-0.2h-4.9c0,3,0,6,0,9.1c0,4.4,0.2,6.9-2,9.9L81,23.2z
				 M115,2.8l-5.7,0.1l-7.6,9.9V2.7h-4.6v15.9l-1.4,1.8c-1.4,1.6-2.7,3-4.4,4.3l-1.3,0.9c-7,4.7-15.4,4.2-22.9,2
				c-5-1.5-8.5-3.5-13.8-3.5c0,0-0.1,0-0.1,0h-0.4c0-6.5-0.1-13.2-0.1-19.8c0,0,0-0.1,0.1-0.1V4l0,0l0-1.1h-4.9c0,4.3,0,8.6,0,12.9
				c0,1.8-0.3,11.8,0.2,12.6c10.2-2.3,22.2,4.3,33.9,2.6c5.3-0.8,10-3,13.4-5.5c4.6-3.3,5.8-5.8,9.5-9.3l9,9.7
				c1.8,1.9,4.4,3.1,8.1,3.5l0.4,0l0.3-0.1c-0.2-0.6-14.6-14.9-15.1-16.3C107.2,12.3,113.9,4.4,115,2.8z M128.1,13.6l-1.6-0.9
				c-1.5-0.8-4.7-2.7-4.7-4.6c0-1.2,0.5-2.1,1.4-2.8c1.1-0.8,2.4-1.1,3.7-1.1c0.7,0,1.3,0.1,2,0.3l0,0l0.4,0.1l0.1,0
				c0.2,0,0.4-0.1,0.6-0.3l0,0l0,0c0.2-0.2,0.2-0.4,0.2-0.6c0-0.6-0.6-0.9-1.2-1c-0.7-0.2-1.5-0.2-2.2-0.2c-2.3,0-4.4,0.6-6.1,2.1
				c-1.6,1.3-2.5,3-2.5,5c0,3.3,3.3,5.8,6.1,7.3l0.8,0.4c1.2,0.6,2.8,1.6,3.6,2.6c0.6,0.7,0.9,1.5,0.9,2.4c0,1.3-0.5,2.4-1.6,3.3
				c-1.2,1-2.9,1.3-4.4,1.3c-0.2,0-0.4,0-0.7,0l1.5,1.7c2.3-0.1,4.5-0.7,6.2-2.2c1.9-1.5,2.8-3.3,2.8-5.6c0-1.4-0.4-2.7-1.2-3.9
				C131.4,15.6,129.6,14.5,128.1,13.6z"/>
		</defs>
		<clipPath id="SVGID_00000044899872956520645030000010376332478206026122_">
			<use xlink:href="#SVGID_00000168800725627816347890000008675484298129082509_"  style="overflow:visible;"/>
		</clipPath>
		
			<linearGradient id="SVGID_00000124148586333304984090000010023124633788302208_" gradientUnits="userSpaceOnUse" x1="53.251" y1="-7.4605" x2="128.1472" y2="41.1777">
			<stop  offset="0" style="stop-color:#B08839"/>
			<stop  offset="8.002806e-02" style="stop-color:#C9A152"/>
			<stop  offset="0.1748" style="stop-color:#E3BB6B"/>
			<stop  offset="0.2638" style="stop-color:#F3CB7C"/>
			<stop  offset="0.3403" style="stop-color:#F8D182"/>
			<stop  offset="0.3408" style="stop-color:#F8D182"/>
			<stop  offset="0.3829" style="stop-color:#EBC475"/>
			<stop  offset="0.4377" style="stop-color:#E4BC6D"/>
			<stop  offset="0.551" style="stop-color:#E2BA6B"/>
			<stop  offset="0.5951" style="stop-color:#E5C172"/>
			<stop  offset="0.6638" style="stop-color:#EED487"/>
			<stop  offset="0.7481" style="stop-color:#FCF2A9"/>
			<stop  offset="0.754" style="stop-color:#FDF4AB"/>
			<stop  offset="0.8179" style="stop-color:#E9D589"/>
			<stop  offset="0.8917" style="stop-color:#D7B86A"/>
			<stop  offset="0.955" style="stop-color:#CCA758"/>
			<stop  offset="1" style="stop-color:#C9A152"/>
		</linearGradient>
		
			<rect x="47.2" y="1.9" style="clip-path:url(#SVGID_00000044899872956520645030000010376332478206026122_);fill:url(#SVGID_00000124148586333304984090000010023124633788302208_);" width="87" height="30"/>
	</g>
	<path class="st1" d="M50.2,42.4h-0.9v-8.9h0.9V42.4z M49.2,31.1l3-0.9l-2.1,2.4h-0.9V31.1z M56.7,39.9c0,0.4,0.1,0.7,0.3,1
		c0.2,0.3,0.4,0.5,0.7,0.6c0.3,0.1,0.6,0.2,0.9,0.2c0.5,0,0.9-0.2,1.3-0.5c0.4-0.3,0.6-0.7,0.6-1.2c0-0.4-0.1-0.7-0.3-1
		c-0.2-0.3-0.5-0.5-1.1-0.7c-0.5-0.2-1-0.3-1.5-0.5c-0.5-0.2-0.9-0.4-1.2-0.7c-0.3-0.3-0.5-0.8-0.5-1.4c0,0,0-0.1,0-0.1
		c0,0,0-0.1,0-0.1c0-0.3,0.1-0.6,0.3-0.9c0.1-0.3,0.3-0.5,0.6-0.7c0.2-0.2,0.5-0.3,0.8-0.4c0.3-0.1,0.6-0.2,0.9-0.2
		c0.5,0,1,0.1,1.4,0.3c0.4,0.2,0.7,0.5,0.9,0.9c0.2,0.4,0.3,0.7,0.3,1v0.1h-1c-0.1-0.5-0.3-0.9-0.6-1.1c-0.3-0.2-0.7-0.4-1.1-0.4
		c-0.3,0-0.6,0.1-0.8,0.2c-0.3,0.1-0.5,0.3-0.6,0.5c-0.2,0.2-0.2,0.4-0.3,0.7c0,0.5,0.2,0.9,0.5,1.1c0.3,0.2,0.8,0.4,1.5,0.6
		c0.7,0.2,1.2,0.4,1.7,0.7c0.4,0.3,0.7,0.7,0.9,1.4c0,0.2,0,0.4,0,0.6c0,0.3-0.1,0.6-0.2,0.9c-0.1,0.3-0.3,0.6-0.5,0.8
		c-0.2,0.3-0.5,0.5-0.9,0.6c-0.4,0.2-0.8,0.2-1.2,0.2c-0.4,0-0.8-0.1-1.2-0.2c-0.4-0.1-0.7-0.3-1-0.6c-0.3-0.2-0.5-0.5-0.6-0.8
		c-0.1-0.3-0.2-0.7-0.2-1H56.7z M68.3,42.4v-8.1h-2.2v-0.8h5.3v0.8h-2.2v8.1H68.3z M80,33.5H81l4.1,8.9h-1c-1.2-2.6-2.4-5.2-3.6-7.8
		l-0.9,2c-0.9,1.9-1.8,3.9-2.7,5.8h-1L80,33.5z M91.4,42.4h-0.9v-8.9h1.3l5.3,7.4v-7.4H98v8.9h-0.9l-5.6-7.8V42.4z M106.6,27.2
		c1,0,1.9,0.2,2.7,0.5c0.8,0.3,1.4,0.8,1.8,1.4c0.4,0.6,0.6,1.2,0.7,1.9c0,0.7-0.1,1.4-0.4,1.9c-0.3,0.5-0.7,1-1.3,1.4
		c0.9,0.4,1.5,0.9,2,1.5c0.4,0.6,0.6,1.4,0.6,2.5c0,0.5-0.1,1-0.3,1.5c-0.2,0.5-0.6,0.9-1,1.3c-0.5,0.4-1,0.7-1.7,0.9
		c-0.7,0.2-1.4,0.3-2.2,0.3h-5.1V27.2H106.6z M104,28.6v5.1h2.6c1,0,1.8-0.2,2.5-0.6c0.7-0.4,1-1.1,1-2c-0.1-0.8-0.4-1.5-1.1-1.8
		c-0.6-0.4-1.5-0.6-2.5-0.6H104z M104,35v6h3c2.7,0,4-1,4-3.1c0-0.6-0.2-1.2-0.5-1.6c-0.4-0.4-0.9-0.8-1.5-1
		c-0.7-0.2-1.4-0.3-2.3-0.3H104z M116.9,39.4v-5.9h0.9v5.9c0,0.5,0.1,0.9,0.3,1.2c0.2,0.4,0.5,0.6,0.9,0.8c0.4,0.2,0.7,0.3,1.1,0.3
		c0.4,0,0.8-0.1,1.1-0.3c0.4-0.2,0.6-0.5,0.8-0.9c0.2-0.4,0.3-0.8,0.3-1.4v-5.7h0.9v5.7c0,0.7-0.2,1.3-0.5,1.8
		c-0.3,0.5-0.7,0.9-1.2,1.1c-0.5,0.3-1,0.4-1.6,0.4c-0.4,0-0.8-0.1-1.2-0.2c-0.4-0.1-0.7-0.3-1-0.6c-0.3-0.3-0.6-0.6-0.7-1
		C117,40.3,116.9,39.9,116.9,39.4z M130.5,41.6l3.9,0v0.8h-4.9v-8.9h0.9V41.6z"/>
	<g>
		<polygon class="st1" points="3.2,42.4 4.7,42.5 4.7,2.5 3.2,2.5 		"/>
		<polygon class="st1" points="6.3,42.5 7.8,42.5 7.8,4.3 6.3,4.4 		"/>
		<polygon class="st1" points="0.1,42.5 1.7,42.5 1.7,6.2 0.1,6.2 		"/>
		<polygon class="st1" points="9.3,42.5 10.9,42.5 10.9,6.2 9.3,6.2 		"/>
	</g>
	<polygon class="st1" points="36.4,44.9 37.4,45 37.4,0 36.4,0 	"/>
</g>
</svg>
